Coordinates
version=1
nRows=12
nColumns=24
inDegrees=yes

Units are S.I. units (second, meters, Newtons, ...)
Angles are in degrees.

endheader
time	pelvis_tilt	pelvis_list	pelvis_rotation	pelvis_tx	pelvis_ty	pelvis_tz	hip_flexion_r	hip_adduction_r	hip_rotation_r	knee_angle_r	ankle_angle_r	subtalar_angle_r	mtp_angle_r	hip_flexion_l	hip_adduction_l	hip_rotation_l	knee_angle_l	ankle_angle_l	subtalar_angle_l	mtp_angle_l	lumbar_extension	lumbar_bending	lumbar_rotation
      0.58300000	      1.01215934	      1.58720998	      8.98270277	     -0.83187939	      1.00918003	      0.33269995	     21.45786745	     -2.48966173	    -12.98843337	      5.54961482	      1.92841775	      1.70779694	      2.98464621	    -17.78126463	      4.65905045	     13.40477323	     -4.19448978	     14.15357482	     -8.30533200	     -3.54222838	     -6.38141591	     -3.83950599	     -7.56945839
      0.58716667	      1.06530296	      1.41162995	      9.07309294	     -0.82595821	      1.00858987	      0.33258024	     21.52520452	     -2.27827633	    -12.96785263	      4.82247487	      2.03774649	      1.42924388	      2.99484899	    -17.98064786	      4.43556181	     13.41713444	     -4.57912709	     14.29490604	     -8.34545820	     -3.54191936	     -6.34972081	     -3.59669045	     -7.61152297
      0.59133333	      1.10065789	      1.22970894	      9.16372559	     -0.81997417	      1.00799145	      0.33247651	     21.59172312	     -2.05898316	    -12.84622997	      4.09814673	      2.02386550	      0.95204974	      3.04043431	    -18.13052554	      4.20593079	     13.30041898	     -5.03251183	     14.53932367	     -8.09596815	     -3.54806753	     -6.30499775	     -3.35541707	     -7.81504701
      0.59550000	      1.14938279	      1.04647528	      9.24194361	     -0.81395422	      1.00743819	      0.33238778	     21.64444723	     -1.83207349	    -12.70053688	      3.34228397	      1.98507086	      0.46370683	      3.10240905	    -18.29521472	      3.97902665	     13.20325258	     -5.48252956	     14.71445363	     -7.95435796	     -3.55310368	     -6.25917706	     -3.10950854	     -7.88013536
      0.59966667	      1.22028098	      0.85650677	      9.32044870	     -0.80788529	      1.00693049	      0.33231081	     21.65971868	     -1.59045551	    -12.51626406	      2.59381639	      1.86818984	     -0.10188024	      3.17435849	    -18.48155738	      3.74119962	     13.11477702	     -5.94508187	     14.85932586	     -7.83596833	     -3.55396901	     -6.23281204	     -2.85230065	     -7.98274205
      0.60383333	      1.28136331	      0.65518292	      9.38135794	     -0.80173508	      1.00642938	      0.33226975	     21.68240552	     -1.32876644	    -12.28622583	      1.83654734	      1.71661266	     -0.68891829	      3.24088626	    -18.66562110	      3.49660791	     13.03363401	     -6.38664239	     14.97449301	     -7.73584069	     -3.54785017	     -6.17754203	     -2.57824311	     -8.06516677
      0.60800000	      1.35247242	      0.47600822	      9.46021295	     -0.79559982	      1.00598288	      0.33223825	     21.66506266	     -1.08355101	    -11.97873961	      1.13468996	      1.38970548	     -1.49275464	      3.34396344	    -18.81744636	      3.26934355	     12.87266745	     -6.91826401	     15.07537393	     -7.57218152	     -3.52917458	     -6.15205168	     -2.34888602	     -8.16432109
      0.61216667	      1.42652409	      0.28553989	      9.52261725	     -0.78940245	      1.00555850	      0.33224984	     21.64172276	     -0.81488613	    -11.63757804	      0.43953302	      1.02181152	     -2.30107387	      3.45950717	    -18.98350760	      3.03141052	     12.73835283	     -7.42898998	     15.14925266	     -7.42620465	     -3.49989487	     -6.11389659	     -2.09923501	     -8.24960876
      0.61633333	      1.48060904	      0.09519565	      9.58762381	     -0.78316408	      1.00514476	      0.33228713	     21.62747829	     -0.54231746	    -11.25541456	     -0.22786578	      0.56132530	     -3.18334519	      3.58752372	    -19.10888154	      2.79567506	     12.59374278	     -7.97639933	     15.20743154	     -7.26538498	     -3.45684302	     -6.04458877	     -1.85712558	     -8.34101013
      0.62050000	      1.55406109	     -0.11380324	      9.63552535	     -0.77683992	      1.00477492	      0.33236180	     21.58264830	     -0.23526130	    -10.84327066	     -0.86664374	      0.02973410	     -4.08680989	      3.71458463	    -19.26266777	      2.53860790	     12.43936298	     -8.50961436	     15.21642850	     -7.11547858	     -3.40290993	     -5.97968165	     -1.57835160	     -8.42375209
      0.62466667	      1.62886252	     -0.31644210	      9.68881224	     -0.77052034	      1.00443893	      0.33247213	     21.52800982	      0.07162680	    -10.40813118	     -1.47708743	     -0.58161594	     -5.03988815	      3.84269212	    -19.39840494	      2.28319179	     12.26827066	     -9.07905289	     15.20507071	     -6.95498464	     -3.33737567	     -5.92350448	     -1.31876525	     -8.50410617
      0.62883333	      1.69790752	     -0.48227116	      9.74892781	     -0.76422176	      1.00414631	      0.33262799	     21.47054462	      0.34610614	     -9.92933270	     -2.06579218	     -1.27743422	     -6.09741833	      4.01796689	    -19.49737091	      2.06304273	     12.08198176	     -9.71213195	     15.18700367	     -6.75116365	     -3.23198431	     -5.88263217	     -1.14829284	     -8.57510788
